<svg xmlns="http://www.w3.org/2000/svg" xml:space="preserve" fill-rule="evenodd" stroke-miterlimit="10" clip-rule="evenodd" viewBox="0 0 24 24">
  <path fill="#8b28ff" fill-rule="nonzero" stroke="#fff" stroke-opacity=".2" stroke-width=".12" d="M11.9763-.0002.8403 3.9958l1.68 14.736 9.456 5.268 9.468-5.268 1.716-14.736-11.184-3.996Z"/>
  <path fill="#6e00ee" fill-rule="nonzero" stroke="#fff" stroke-opacity=".2" stroke-width=".12" d="M11.9763-.0002v24l9.468-5.268 1.716-14.736-11.184-3.996Z"/>
  <path fill-opacity=".5" fill-rule="nonzero" d="M11.959 1.4135 2.1976 4.9162l1.4726 12.917 8.2888 4.6177 8.2992-4.6177 1.5042-12.917-9.8034-3.5027Z"/>
  <path fill-opacity=".5" fill-rule="nonzero" d="M11.959 1.4135v21.0374l8.2992-4.6177 1.5042-12.917-9.8034-3.5027Z"/>
  <path fill="#7928ff" fill-rule="nonzero" d="M12.1096 11.5118a.3693.3693 0 0 0-.2592 0s-4.6314 1.7603-4.6738 1.829l.186.5413 4.4878 1.676a.3678.3678 0 0 0 .2592 0l4.4878-1.676.186-.5411c-.0424-.0689-4.6738-1.8292-4.6738-1.8292Z"/>
  <path fill="#7928ff" fill-rule="nonzero" d="M12.1096 11.5118a.3703.3703 0 0 0-.1296-.0234v4.0932a.3703.3703 0 0 0 .1296-.0234l4.4878-1.6761.186-.5411c-.0424-.0689-4.6738-1.8292-4.6738-1.8292Z"/>
  <path fill="url(#a)" fill-rule="nonzero" d="m252.239 220.411-12.211-19.862L200 214.897l-40.028-14.348-12.211 19.862a3.084 3.084 0 0 0-.289 2.62c.3.873.974 1.566 1.839 1.889l49.609 18.528c.348.13.714.195 1.08.195.366 0 .732-.065 1.08-.195l49.609-18.528a3.0901 3.0901 0 0 0 1.84-1.889c.3-.873.193-1.834-.29-2.62Z" transform="matrix(.12 0 0 .12 -12.02 -10.725)"/>
  <path fill="#5316b7" fill-rule="nonzero" d="m18.2487 15.7682-1.4653-2.3833-4.8034 1.7217v3.4496a.3703.3703 0 0 0 .1296-.0234l5.953-2.2234a.3706.3706 0 0 0 .186-.5412Z"/>
  <path fill="#8a24f8" fill-rule="nonzero" d="M12.0953 8.8141a.3717.3717 0 0 0-.2307 0s-2.4117.8244-2.4566.8975l.186.5412 2.2564.8426a.3703.3703 0 0 0 .2592 0l2.2564-.8426.186-.5412c-.045-.073-2.4567-.8975-2.4567-.8975Z"/>
  <path fill="#8a24f8" fill-rule="nonzero" d="M12.0953 8.8141a.3714.3714 0 0 0-.1153-.0183v2.323a.3703.3703 0 0 0 .1296-.0234l2.2564-.8426.186-.5412c-.045-.073-2.4567-.8975-2.4567-.8975Z"/>
  <path fill="url(#b)" fill-rule="nonzero" d="m233.436 189.828-12.003-19.523L200 177.707l-21.433-7.402-12.003 19.522c-.483.787-.59 1.748-.29 2.621.301.873.975 1.566 1.84 1.889l30.806 11.505c.348.13.714.195 1.08.195.366 0 .732-.065 1.08-.195l30.806-11.505c.865-.322 1.539-1.016 1.84-1.889.3-.872.193-1.834-.29-2.62Z" transform="matrix(.12 0 0 .12 -12.02 -10.725)"/>
  <path fill="#6809cd" fill-rule="nonzero" d="M15.9923 12.0544 14.552 9.7116l-2.572.8882v3.3998a.3703.3703 0 0 0 .1296-.0234l3.6967-1.3808a.3706.3706 0 0 0 .186-.541Z"/>
  <path fill="#fb14bb" fill-rule="nonzero" d="M12.2956 6.0416a.3703.3703 0 0 0-.6312 0l-1.4653 2.3832a.3704.3704 0 0 0 .186.5412l1.4653.5474a.3703.3703 0 0 0 .1296.0234c.044 0 .2095-.3645.2513-.38l.0643-3.1152Z"/>
  <path fill="#fb14bb" fill-rule="nonzero" d="m13.761 8.425-1.4654-2.3834a.3703.3703 0 0 0-.3156-.1765v3.6717a.3703.3703 0 0 0 .1296-.0234l1.4653-.5474a.3705.3705 0 0 0 .186-.541Z"/>
  <defs>
    <linearGradient id="a" x1="0" x2="1" y1="0" y2="0" gradientTransform="translate(147.304 222.096) scale(105.392)" gradientUnits="userSpaceOnUse">
      <stop offset="0" stop-color="#5316b7"/>
      <stop offset="1" stop-color="#8b5dd7"/>
    </linearGradient>
    <linearGradient id="b" x1="0" x2="1" y1="0" y2="0" gradientTransform="translate(166.107 188.171) scale(67.786)" gradientUnits="userSpaceOnUse">
      <stop offset="0" stop-color="#6809cd"/>
      <stop offset="1" stop-color="#6d2d98"/>
    </linearGradient>
  </defs>
</svg>
