<svg viewBox="0 0 800 600" xmlns="http://www.w3.org/2000/svg" xml:space="preserve" style="fill-rule:evenodd;clip-rule:evenodd;stroke-linejoin:round;stroke-miterlimit:2"><path style="fill:silver" d="M0 0h800v600H0z"/><path d="M229.5 99.811c0-4.415-3.19-8-7.12-8h-74.76c-3.93 0-7.12 3.585-7.12 8V266.64c0 4.416 3.19 8 7.12 8h74.76c3.93 0 7.12-3.584 7.12-8V99.811Z" style="fill:#fff" transform="matrix(1.1236 0 0 1 -7.865 -23.811)"/><path d="M229.5 95.978c0-2.3-.942-4.167-2.102-4.167h-84.796c-1.16 0-2.102 1.867-2.102 4.167v174.496c0 2.299.942 4.166 2.102 4.166h84.796c1.16 0 2.102-1.867 2.102-4.166V95.978Z" style="fill:#fff" transform="matrix(4.33708 0 0 2.18784 -345.36 -132.868)"/><path style="fill:#f0f0f0" d="M34.156 25.046h664.37v53.778H34.156z" transform="matrix(1.20415 0 0 1.00421 -41.129 -25.154)"/><path d="M390.813 29.17c0-5.468-7.056-9.907-15.746-9.907h-99.723c-8.691 0-15.746 4.439-15.746 9.907 0 5.467 7.055 9.906 15.746 9.906h99.723c8.69 0 15.746-4.439 15.746-9.906Z" style="fill:silver" transform="matrix(.57158 0 0 .90847 -134.382 .5)"/><path d="M390.813 29.17c0-5.468-7.056-9.907-15.746-9.907h-99.723c-8.691 0-15.746 4.439-15.746 9.907 0 5.467 7.055 9.906 15.746 9.906h99.723c8.69 0 15.746-4.439 15.746-9.906Z" style="fill:silver" transform="matrix(.57158 0 0 .90847 -45.382 .5)"/><path d="M390.813 29.17c0-5.468-7.056-9.907-15.746-9.907h-99.723c-8.691 0-15.746 4.439-15.746 9.907 0 5.467 7.055 9.906 15.746 9.906h99.723c8.69 0 15.746-4.439 15.746-9.906Z" style="fill:silver" transform="matrix(.57158 0 0 .90847 43.618 .5)"/><path d="M390.813 29.17c0-5.468-7.056-9.907-15.746-9.907h-99.723c-8.691 0-15.746 4.439-15.746 9.907 0 5.467 7.055 9.906 15.746 9.906h99.723c8.69 0 15.746-4.439 15.746-9.906Z" style="fill:silver" transform="matrix(.57158 0 0 .90847 132.618 .5)"/></svg>